<svg id="Layer_1" data-name="Layer 1" xmlns="http://www.w3.org/2000/svg" viewBox="0 0 550 160"><defs><style>.cls-1{fill:#fff;}</style></defs><path class="cls-1" d="M154.15,120.24a25.88,25.88,0,0,1-11,2.52c-13,0-23.07-10.15-23.07-31.43s10.81-31.55,23.7-31.55a19.51,19.51,0,0,1,9.39,2.43l2.55,13.1h7.33l-.42-16a41.59,41.59,0,0,0-20.76-5.21C121.47,54.08,105,67.94,105,91.29s15.53,37.2,36.58,37.2a45.53,45.53,0,0,0,22-5.28l.42-15.95h-7.33Z"/><path class="cls-1" d="M226.48,104.28V93.13c0-13.19-5.31-19-14.61-19-6.47,0-12.7,3.16-18.27,9.48V64.46l.43-15-1.61-1-19.07,4.8v4.13l7.72,1.07v45.83c0,4.63,0,11.38-.16,16.68L174,122.33v4.36h26.35v-4.36l-6.23-1.28c-.11-5.31-.16-12.11-.16-16.77V89.09C198.33,85,202.27,83,206.31,83c5.35,0,7.32,2.78,7.32,11.18v10.1c0,4.77,0,11.45-.15,16.7l-6.77,1.35v4.36H233.1v-4.36L226.64,121C226.54,115.77,226.48,109.07,226.48,104.28Z"/><path class="cls-1" d="M287.9,121.46c-2,0-3.16-1.36-3.16-4.79V93.37c0-13.88-5.38-19.29-17.74-19.29-13.07,0-21.32,5.53-22.6,14,.52,3.1,2.66,4.81,6,4.81,3.51,0,6.06-2.29,6.66-7.43l1.25-5.88a27,27,0,0,1,4.48-.38c6.92,0,9.32,2.68,9.32,12.63v3c-3.68,1-7.43,2-10.16,2.92-15.4,5-19.11,10.07-19.11,16.87,0,8.82,6.12,13.5,14.15,13.5,6.77,0,10.26-2.86,15.53-8.22,1.22,5,4.9,8,10.56,8,5.08,0,8.43-1.82,11-6.78l-2.48-2.11C290.38,120.69,289.37,121.46,287.9,121.46Zm-25.06-1.06c-4.24,0-7.51-2.36-7.51-7.86,0-4.08,2.13-7.9,9.31-10.77a71.33,71.33,0,0,1,7.48-2.55V116C267.5,119.34,265.61,120.4,262.84,120.4Z"/><path class="cls-1" d="M384.48,104.28V92.81c0-13-4.9-18.73-14.58-18.73-6.47,0-12.56,2.77-18.36,9.77-1.94-6.66-6.34-9.77-13.31-9.77-6.51,0-12.57,3.51-17.76,9.43l-.77-8.32L318,74.08l-17.84,6.76v4l7.52,1c.25,4.27.32,7,.32,12.9v5.61c0,4.64-.06,11.39-.16,16.69l-6.89,1.36v4.36h26.36v-4.36L321,121c-.1-5.31-.15-12.1-.15-16.75V88.38c3.76-3.31,7.55-5.38,11.61-5.38C338,83,340,86,340,94.64v9.64c0,4.77-.06,11.44-.16,16.68l-6.77,1.37v4.36h26.08v-4.36l-6.3-1.31c-.11-5.25-.16-12-.16-16.74V93.13a43.08,43.08,0,0,0-.24-4.71c4.08-3.63,7.84-5.42,11.79-5.42,5.32,0,7.55,2.5,7.55,11.51v9.77c0,4.77-.06,11.44-.16,16.69l-6.57,1.36v4.36h26v-4.36L384.64,121C384.53,115.75,384.48,109.06,384.48,104.28Z"/><path class="cls-1" d="M450.65,90.88l.32-15-1.38-1.11L431.34,77.2v3.93l6.72,1.5-.31,30.56c-3.81,3.65-8.18,6.09-12.19,6.09-4.74,0-7.2-2.72-7.2-10.77V90.88l.53-15-1.38-1.11L398.89,77v4.13l6.87,1.51L405.43,109c-.14,14.09,5.59,19.21,14.44,19.21,6.76,0,13-3.35,18.15-9.9l.89,9.4,18.21-1v-4.36L450.65,121Z"/><path class="cls-1" d="M513.55,95.57c0-12.92-8.36-21.49-20.92-21.49-13.51,0-25.94,10.27-25.94,27.34,0,16.74,10.18,26.78,25.11,26.78,10,0,17.29-4.45,21.41-12.42l-3.08-2.71c-3.53,3.9-7.64,6.64-13.93,6.64-8.91,0-15.31-6.09-15.83-18.28h32.51A22.33,22.33,0,0,0,513.55,95.57Zm-18.61.79H480.39c.85-12.63,6.27-17.12,11.43-17.12s9.5,4.49,9.5,11.05C501.32,94.18,500.07,96.36,494.94,96.36Z"/><path class="cls-1" d="M542.79,121c-.12-5.57-.24-11.14-.24-16.71V64.46l.43-15-1.61-1L522,53.25v4.13l7.72,1.07v45.83c0,5.55-.12,11.11-.24,16.67l-7.21,1.38v4.36H550v-4.36Z"/><path class="cls-1" d="M103.27,128.62c-12.39-7-15.87-21-15.87-21s-1.32,4.2-4.2,11.6S72,123.71,72,123.71l11.85-22.66a56.82,56.82,0,0,1-11.32,11.46c-6.47,4.59-18.6,1.17-18.6,1.17L81.63,97.24A234.63,234.63,0,0,1,59.32,105c-12.24,3.56-19.5-8-19.5-8l40.85-5.27s-26.86.11-38.21-.43S27.16,79,27.16,79l52.05,5.41s-30.13-6.58-40.45-8.72c-17.65-3.59-21-22.23-21-22.23L78,75.64C74.52,74,18.33,47.28,9,39.1-.63,30.67,0,18.28,0,18.28,14.13,31.59,75.35,66.51,83.2,70.59c7.56,3.93,8.85,5,7.79,12.09l0,.26a54.6,54.6,0,0,0,12.31,45.68Z"/></svg>