<svg width="30" height="30" viewBox="0 0 30 30" fill="none" xmlns="http://www.w3.org/2000/svg">
<path d="M19.8862 15.4665L30 21.8602V8.80273L19.8862 15.4665Z" fill="#EF8100"/>
<path d="M0 8.80273V21.8602L10.1137 15.4665L0 8.80273Z" fill="#EF8100"/>
<path d="M28.1249 5H1.8749C0.939277 5 0.196777 5.6975 0.0561523 6.59562L14.9999 16.4412L29.9436 6.59562C29.803 5.6975 29.0605 5 28.1249 5Z" fill="#EF8100"/>
<path d="M18.1688 16.5986L15.5157 18.3461C15.3582 18.4492 15.1801 18.4998 15.0001 18.4998C14.8201 18.4998 14.6419 18.4492 14.4844 18.3461L11.8313 16.5967L0.0600586 24.0423C0.204434 24.9329 0.943183 25.6248 1.87506 25.6248H28.1251C29.0569 25.6248 29.7957 24.9329 29.9401 24.0423L18.1688 16.5986Z" fill="#EF8100"/>
</svg>
