<svg width="30" height="30" viewBox="0 0 30 30" fill="none" xmlns="http://www.w3.org/2000/svg">
<path d="M20.3219 0H10.187C8.46401 0 7 1.40491 7 3.12746V26.8761C7 28.5987 8.43303 30 10.1561 30L20.3076 29.989C22.0304 29.989 23.4398 28.5875 23.4398 26.8647L23.4546 3.12579C23.4544 1.39705 22.0518 0 20.3219 0ZM13.7903 1.87504H16.7307C16.989 1.87504 17.1994 2.08473 17.1994 2.34375C17.1994 2.60276 16.989 2.81245 16.7307 2.81245H13.7903C13.5313 2.81245 13.3216 2.60276 13.3216 2.34375C13.3216 2.08473 13.5313 1.87504 13.7903 1.87504ZM12.0235 2.02421C12.1972 1.85074 12.5134 1.84836 12.6868 2.02421C12.7738 2.11094 12.8253 2.23271 12.8253 2.35709C12.8253 2.47909 12.7738 2.60061 12.6868 2.68759C12.6004 2.77456 12.4781 2.82579 12.3564 2.82579C12.2322 2.82579 12.1128 2.77456 12.0235 2.68759C11.937 2.60085 11.8877 2.47909 11.8877 2.35709C11.8874 2.23271 11.937 2.11094 12.0235 2.02421ZM15.1659 29.0709C14.3925 29.0709 13.7634 28.4414 13.7634 27.6682C13.7634 26.8947 14.3925 26.2654 15.1659 26.2654C15.9394 26.2654 16.5685 26.8947 16.5685 27.6682C16.5685 28.4414 15.9392 29.0709 15.1659 29.0709ZM21.9996 25.312H8.64057V4.45326H21.9996V25.312Z" fill="#EF8100"/>
</svg>
